[img]http://img14.imageshack.us/img14/6839/knowingbluray2320x200.jpg[/img]
 
http://www.imdb.com/title/tt0448011/

Source: Knowing.720p.Bluray.x264-HUBRIS

Subs: Arabic, Brazilian, Bulgarian, Danish, Dutch, English, Farsi-Persian, French, Greek, Hebrew, Hungarian, Indonesian, Italian, Norwegian, Polish, Portuguese, Romanian, Spanish, Swedish and Turkish.

Sample and Screens included.

General
Complete name                    : Knowing-720p MP4 AAC BRRip 2009-CC.mp4
Format                           : MPEG-4
Format profile                   : Base Media
Codec ID                         : isom
File size                        : 2.08 GiB
Duration                         : 2h 1mn
Overall bit rate                 : 2 456 Kbps
Encoded date                     : UTC 2012-02-24 08:06:55
Tagged date                      : UTC 2012-02-24 08:06:55
Writing application              : Yamb 2.1.0.0 

Video
ID                               : 1
Format                           : AVC
Format/Info                      : Advanced Video Codec
Format profile                   : High@L3.1
Format settings, CABAC           : Yes
Format settings, ReFrames        : 5 frames
Codec ID                         : avc1
Codec ID/Info                    : Advanced Video Coding
Duration                         : 2h 1mn
Bit rate mode                    : Variable
Bit rate                         : 2 098 Kbps
Maximum bit rate                 : 14.2 Mbps
Width                            : 1 280 pixels
Height                           : 544 pixels
Display aspect ratio             : 2.35:1
Frame rate mode                  : Variable
Frame rate                       : 23.976 fps
Minimum frame rate               : 19.048 fps
Maximum frame rate               : 24.390 fps
Color space                      : YUV
Chroma subsampling               : 4:2:0
Bit depth                        : 8 bits
Scan type                        : Progressive
Bits/(Pixel*Frame)               : 0.126
Stream size                      : 1.75 GiB (84%)
Writing library                  : x264 core 112
Encoding settings                : cabac=1 / ref=5 / deblock=1:0:0 / analyse=0x3:0x113 / me=hex / subme=7 / psy=1 / psy_rd=1.00:0.00 / mixed_ref=1 / me_range=16 / chroma_me=1 / trellis=1 / 8x8dct=1 / cqm=0 / deadzone=21,11 / fast_pskip=1 / chroma_qp_offset=-2 / threads=3 / sliced_threads=0 / nr=0 / decimate=1 / interlaced=0 / constrained_intra=0 / bframes=5 / b_pyramid=2 / b_adapt=2 / b_bias=0 / direct=1 / weightb=1 / open_gop=0 / weightp=2 / keyint=240 / keyint_min=24 / scenecut=40 / intra_refresh=0 / rc_lookahead=50 / rc=abr / mbtree=1 / bitrate=2098 / ratetol=1.0 / qcomp=0.60 / qpmin=3 / qpmax=51 / qpstep=4 / ip_ratio=1.40 / aq=1:1.00
Encoded date                     : UTC 2012-02-25 00:26:54
Tagged date                      : UTC 2012-02-24 08:11:18
Color primaries                  : BT.709-5, BT.1361, IEC 61966-2-4, SMPTE RP177
Transfer characteristics         : BT.709-5, BT.1361
Matrix coefficients              : BT.709-5, BT.1361, IEC 61966-2-4 709, SMPTE RP177

Audio
ID                               : 2
Format                           : AAC
Format/Info                      : Advanced Audio Codec
Format version                   : Version 4
Format profile                   : LC
Format settings, SBR             : No
Codec ID                         : 40
Duration                         : 2h 1mn
Bit rate mode                    : Variable
Bit rate                         : 384 Kbps
Maximum bit rate                 : 748 Kbps
Channel(s)                       : 6 channels
Channel positions                : Front: L C R, Side: L R, LFE
Sampling rate                    : 48.0 KHz
Stream size                      : 334 MiB (16%)
Encoded date                     : UTC 2012-02-24 08:10:12
Tagged date                      : UTC 2012-02-24 08:11:18

Enjoy...

[img]http://img827.imageshack.us/img827/817/knowing720pmp4aacbrrip2.png[/img]

[img]http://img826.imageshack.us/img826/817/knowing720pmp4aacbrrip2.png[/img]

[img]http://img46.imageshack.us/img46/817/knowing720pmp4aacbrrip2.png[/img]

[img]http://img814.imageshack.us/img814/817/knowing720pmp4aacbrrip2.png[/img]

[img]http://img807.imageshack.us/img807/817/knowing720pmp4aacbrrip2.png[/img]

[img]http://img220.imageshack.us/img220/817/knowing720pmp4aacbrrip2.png[/img]

[img]http://img18.imageshack.us/img18/817/knowing720pmp4aacbrrip2.png[/img]